<svg xmlns="http://www.w3.org/2000/svg" version="1.1" xmlns:xlink="http://www.w3.org/1999/xlink" xmlns:svgjs="http://svgjs.dev/svgjs" width="2000" height="2250" viewBox="0 0 2000 2250"><g transform="matrix(1,0,0,1,0,0)"><svg viewBox="0 0 320 360" data-background-color="#ffffff" preserveAspectRatio="xMidYMid meet" height="2250" width="2000" xmlns="http://www.w3.org/2000/svg" xmlns:xlink="http://www.w3.org/1999/xlink"><g id="tight-bounds" transform="matrix(1,0,0,1,0,0)"><svg viewBox="0 0 320 360" height="360" width="320"><g><svg></svg></g><g><svg viewBox="0 0 320 360" height="360" width="320"><g><path transform="translate(-25.80645,-5.80645) scale(10.32258,10.32258)" d="M18 33.5c8.55 0 15.5-6.95 15.5-15.5 0-8.55-6.95-15.5-15.5-15.5-8.55 0-15.5 6.95-15.5 15.5 0 8.55 6.95 15.5 15.5 15.5zM18.5 32.47v-1c7.04-0.26 12.71-5.93 12.97-12.97h1c-0.26 7.6-6.37 13.71-13.97 13.97zM18.5 3.53c7.6 0.26 13.71 6.37 13.97 13.97h-1c-0.26-7.04-5.93-12.71-12.97-12.97zM30.5 18c0 6.89-5.61 12.5-12.5 12.5-6.89 0-12.5-5.61-12.5-12.5 0-6.89 5.61-12.5 12.5-12.5 6.89 0 12.5 5.61 12.5 12.5zM17.5 3.53v1c-7.04 0.26-12.71 5.93-12.97 12.97h-1c0.26-7.6 6.37-13.71 13.97-13.97zM4.53 18.5c0.26 7.04 5.93 12.71 12.97 12.97v1c-7.6-0.26-13.71-6.37-13.97-13.97z" fill="#b19dd0" fill-rule="nonzero" stroke="none" stroke-width="1" stroke-linecap="butt" stroke-linejoin="miter" stroke-miterlimit="10" stroke-dasharray="" stroke-dashoffset="0" font-family="none" font-weight="none" font-size="none" text-anchor="none" style="mix-blend-mode: normal" data-fill-palette-color="tertiary"></path></g><g transform="matrix(1,0,0,1,70.08999999999999,90.08999999999999)"><svg viewBox="0 0 179.82000000000002 179.82000000000002" height="179.82000000000002" width="179.82000000000002"><g><svg viewBox="0 0 179.82000000000002 179.82000000000002" height="179.82000000000002" width="179.82000000000002"><g><svg viewBox="0 0 179.82000000000002 179.82000000000002" height="179.82000000000002" width="179.82000000000002"><g id="textblocktransform"><svg viewBox="0 0 179.82000000000002 179.82000000000002" height="179.82000000000002" width="179.82000000000002" id="textblock"><g><svg viewBox="0 0 179.82000000000002 179.82000000000002" height="179.82000000000002" width="179.82000000000002"><g transform="matrix(1,0,0,1,36.93002441959793,36.93002441959793)"><svg viewBox="0 0 105.95995116080417 105.95995116080417" height="105.95995116080417" width="105.95995116080417"><g id="icon-0"><circle r="53" cx="52.97997558040208" cy="52.97997558040208" fill="#000000" data-fill-palette-color="accent"></circle><svg xmlns="http://www.w3.org/2000/svg" xmlns:xlink="http://www.w3.org/1999/xlink" version="1.1" x="15.893992674120625" y="15.893992674120625" viewBox="0.002 0.0009240591769805653 99.997 99.99907594082302" enable-background="new 0 0 100 100" xml:space="preserve" height="74.17196581256292" width="74.17196581256292" class="icon-jxe-0" data-fill-palette-color="quaternary" id="jxe-0"><g fill="#b19dd0" data-fill-palette-color="quaternary"><g fill="#b19dd0" data-fill-palette-color="quaternary"><path d="M41.276 99.242L42.82 90.493A41.3 41.3 0 0 0 49.96 91.113 41 41 0 0 0 54.985 90.812L56.055 99.637A54 54 0 0 1 52.924 99.917C51.929 99.975 50.94 100 49.96 100 47.007 100 44.102 99.741 41.276 99.242M56.971 90.523A41 41 0 0 0 66.173 87.815L69.668 95.982A49.6 49.6 0 0 1 58.468 99.283zM27.876 94.849L31.816 86.882A40.8 40.8 0 0 0 40.856 90.096L38.884 98.762A49.8 49.8 0 0 1 27.876 94.849M67.989 86.98A41 41 0 0 0 76.065 81.802V81.8L81.703 88.668A49.7 49.7 0 0 1 71.881 94.972zM16.251 86.889L22.247 80.333A41 41 0 0 0 30.039 85.946V85.95L25.715 93.715A50.3 50.3 0 0 1 16.251 86.889M66.17 87.814H66.175L66.173 87.815zM77.581 80.493A41.5 41.5 0 0 0 83.904 73.263L91.228 78.295A50.3 50.3 0 0 1 83.548 87.078zM7.294 76.016L14.878 71.389A41.4 41.4 0 0 0 20.801 78.943L14.492 85.202A50.3 50.3 0 0 1 7.294 76.016M85.001 71.579A41 41 0 0 0 89.059 62.883L97.497 65.667A50 50 0 0 1 92.559 76.252zM1.731 63.065L10.311 60.752A40.7 40.7 0 0 0 13.88 69.653V69.657L6.076 73.907A49.6 49.6 0 0 1 1.731 63.065M89.64 60.961A41 41 0 0 0 91.095 51.474L99.975 51.779A49.8 49.8 0 0 1 98.204 63.329zM0.088 52.928A53 53 0 0 1 0.002 49.96C0.002 49.67 0.004 49.378 0.008 49.088L8.894 49.241C8.888 49.481 8.888 49.722 8.888 49.96 8.888 50.769 8.912 51.582 8.96 52.406 9.086 54.596 9.386 56.732 9.836 58.806L1.153 60.699A51 51 0 0 1 0.088 52.928M91.046 47.598A41.3 41.3 0 0 0 89.875 39.941L98.493 37.776C99.247 40.776 99.73 43.884 99.916 47.08 99.963 47.84 99.99 48.593 99.999 49.346L91.112 49.467A42 42 0 0 0 91.046 47.598M0.11 46.657A49.8 49.8 0 0 1 2.241 35.167L10.728 37.803A41 41 0 0 0 8.975 47.24zM89.875 39.939V39.941zM85.489 29.226L93.153 24.728A49.7 49.7 0 0 1 97.841 35.428L89.337 38.012A40.6 40.6 0 0 0 85.489 29.226M11.367 35.902L3.022 32.853A50 50 0 0 1 8.287 22.431L15.7 27.336A41 41 0 0 0 11.371 35.902zM78.279 20.157L84.387 13.706A50.2 50.2 0 0 1 91.872 22.658L84.436 27.523A41.5 41.5 0 0 0 78.279 20.157M9.685 20.432A50.3 50.3 0 0 1 17.636 11.888L23.392 18.659A41.4 41.4 0 0 0 16.847 25.689zM68.826 13.445V13.443L72.901 5.548A50.4 50.4 0 0 1 82.578 12.073L76.788 18.814A41 41 0 0 0 68.826 13.445M19.526 10.359A49.7 49.7 0 0 1 29.541 4.368L33.179 12.474A41 41 0 0 0 24.947 17.399zM57.886 9.643L59.58 0.918A49.8 49.8 0 0 1 70.708 4.481L67.02 12.567A40.6 40.6 0 0 0 57.886 9.643M35.025 11.698L31.794 3.424A50 50 0 0 1 43.091 0.48L44.313 9.282A40.8 40.8 0 0 0 35.025 11.702zM50.045 8.887C49.236 8.887 48.422 8.91 47.599 8.96 47.163 8.987 46.732 9.017 46.304 9.056L45.513 0.204A57 57 0 0 1 47.076 0.09 50 50 0 0 1 57.176 0.51L55.91 9.306A41 41 0 0 0 50.045 8.887" fill="#b19dd0" data-fill-palette-color="quaternary"></path></g><g fill="#b19dd0" data-fill-palette-color="quaternary"><path d="M41.904 87.635L43.766 78.947C45.773 79.378 47.859 79.603 50.004 79.603 50.927 79.603 51.84 79.562 52.736 79.479L53.545 88.326C52.379 88.436 51.197 88.492 50.004 88.492 47.228 88.492 44.519 88.195 41.904 87.635M54.652 79.242A29.4 29.4 0 0 0 63.194 76.512L67.161 84.462A38.1 38.1 0 0 1 56.033 88.02zM28.853 82.159L33.74 74.74A29.5 29.5 0 0 0 41.895 78.48L39.466 87.028A38.2 38.2 0 0 1 28.853 82.159M64.893 75.596A29.8 29.8 0 0 0 71.877 69.948L78.44 75.936A38.5 38.5 0 0 1 69.366 83.271zM18.665 72.35L25.9 67.184A29.6 29.6 0 0 0 32.165 73.624H32.162L26.801 80.71A38.6 38.6 0 0 1 18.665 72.35M73.134 68.478A29.5 29.5 0 0 0 77.614 60.7V60.703L85.9 63.916A38.5 38.5 0 0 1 80.071 74.029zM12.701 59.515L21.315 57.325A29.4 29.4 0 0 0 24.825 65.579H24.828L17.272 70.262A38.5 38.5 0 0 1 12.701 59.515M78.254 58.88A29.6 29.6 0 0 0 79.604 50.004H88.493A38.4 38.4 0 0 1 86.732 61.538zM11.517 50.003C11.517 48.448 11.61 46.915 11.789 45.404L20.613 46.456A30 30 0 0 0 20.405 50.003C20.405 51.863 20.574 53.679 20.902 55.44L12.166 57.062A38.3 38.3 0 0 1 11.517 50.003M77.621 39.32L85.91 36.111A38.4 38.4 0 0 1 88.414 47.515L79.543 48.081A29.4 29.4 0 0 0 77.621 39.32M12.168 42.925A38.3 38.3 0 0 1 16.03 31.901L23.869 36.088A29.2 29.2 0 0 0 20.904 44.55zM71.893 30.072L78.462 24.086A38.6 38.6 0 0 1 84.925 33.801L76.867 37.544A29.8 29.8 0 0 0 71.893 30.072M17.285 29.726A38.8 38.8 0 0 1 24.867 20.856L30.673 27.583A29.9 29.9 0 0 0 24.835 34.412zM63.214 23.502H63.212L67.182 15.552A38.4 38.4 0 0 1 76.71 22.291L70.545 28.686A29.6 29.6 0 0 0 63.214 23.502M26.818 19.281A38.4 38.4 0 0 1 37.09 13.736L40.073 22.107A29.5 29.5 0 0 0 32.175 26.369zM52.753 20.524L53.567 11.677A38.2 38.2 0 0 1 64.896 14.503L61.455 22.694A29.5 29.5 0 0 0 52.753 20.524M39.486 12.969A38.5 38.5 0 0 1 50.004 11.514C50.357 11.514 50.712 11.516 51.062 11.529L50.825 20.409A22 22 0 0 0 50.005 20.401C47.191 20.401 44.481 20.788 41.91 21.518z" fill="#b19dd0" data-fill-palette-color="quaternary"></path></g><g fill="#b19dd0" data-fill-palette-color="quaternary"><path d="M50.005 76.883H49.663L49.774 67.995C49.85 67.997 49.927 67.997 50.005 67.997A17.95 17.95 0 0 0 57.815 66.22L61.677 74.221A26.7 26.7 0 0 1 50.025 76.883zM35.414 72.58L40.242 65.123A17.9 17.9 0 0 0 47.992 67.887L47.014 76.716A26.7 26.7 0 0 1 35.414 72.58M59.379 65.367A18.1 18.1 0 0 0 65.246 59.571V59.574L72.765 64.306A26.9 26.9 0 0 1 64.013 72.947zM25.637 61.368L33.69 57.607A18.1 18.1 0 0 0 38.794 64.081L33.254 71.027A27 27 0 0 1 25.637 61.368M66.119 58.021A17.9 17.9 0 0 0 67.998 50.003C67.998 49.306 67.958 48.621 67.885 47.946L76.713 46.945C76.826 47.95 76.885 48.97 76.885 50.003 76.885 54.294 75.873 58.379 74.07 61.985zM23.123 50.002C23.123 48.876 23.193 47.763 23.328 46.67L32.147 47.763A18 18 0 0 0 32.01 50.002C32.01 52.101 32.366 54.097 33.017 55.96H33.018L24.631 58.903A26.9 26.9 0 0 1 23.123 50.002M64.058 38.762V38.759L70.991 33.204A26.8 26.8 0 0 1 76.284 44.323L67.598 46.193A17.94 17.94 0 0 0 64.058 38.762M23.785 44.049A26.8 26.8 0 0 1 29.193 32.986L36.068 38.614A17.9 17.9 0 0 0 32.453 46.011zM55.921 33.002L58.844 24.611A26.9 26.9 0 0 1 69.23 31.214L62.875 37.422A18.04 18.04 0 0 0 55.921 33.002M37.263 37.292L37.265 37.291 37.266 37.292zM30.974 31.015A26.9 26.9 0 0 1 41.426 24.521L44.262 32.942A18 18 0 0 0 37.265 37.291zM50.005 32.005A18.3 18.3 0 0 0 45.97 32.459L43.99 23.797A27 27 0 0 1 50.005 23.121C52.162 23.121 54.27 23.377 56.29 23.861L54.218 32.502A18.2 18.2 0 0 0 50.005 32.005" fill="#b19dd0" data-fill-palette-color="quaternary"></path></g><g fill="#b19dd0" data-fill-palette-color="quaternary"><path d="M45.401 65.105L47.99 56.6A6.9 6.9 0 0 0 50.004 56.898C51.314 56.898 52.506 56.542 53.542 55.924H53.545L58.114 63.542A15.74 15.74 0 0 1 50.004 65.785 15.9 15.9 0 0 1 45.401 65.105M34.682 53.803L43.309 51.668A6.92 6.92 0 0 0 46.748 56.086L42.546 63.916A15.8 15.8 0 0 1 34.682 53.803M54.63 55.118A6.85 6.85 0 0 0 56.901 50.002 8 8 0 0 0 56.87 49.339L65.716 48.502A15.77 15.77 0 0 1 60.594 61.706zM34.22 50.002A15.74 15.74 0 0 1 38.87 38.815L45.14 45.113A6.85 6.85 0 0 0 43.106 50.002C43.106 50.111 43.109 50.223 43.116 50.335L34.24 50.751C34.225 50.501 34.22 50.255 34.22 50.002M52.967 43.769L56.787 35.748A15.82 15.82 0 0 1 65.127 45.472L56.615 48.02A6.94 6.94 0 0 0 52.967 43.769M41.255 36.863A15.73 15.73 0 0 1 50.004 34.219C51.334 34.219 52.639 34.385 53.88 34.698L51.703 43.314A6.8 6.8 0 0 0 50.004 43.104 6.83 6.83 0 0 0 46.186 44.256zM52.965 43.768L52.967 43.769 52.965 43.771z" fill="#b19dd0" data-fill-palette-color="quaternary"></path></g></g></svg></g></svg></g><g id="text-0"><path d="M56.087 21.283l-6.744-17.483 6.417-2.475c1.867-0.72 3.568-1.146 5.104-1.277 1.536-0.131 2.902 0.005 4.1 0.407 1.195 0.395 2.219 1.043 3.073 1.942 0.86 0.897 1.547 2.013 2.063 3.349v0c0.49 1.271 0.722 2.529 0.696 3.775-0.026 1.246-0.337 2.438-0.932 3.577-0.605 1.134-1.508 2.19-2.71 3.167-1.211 0.973-2.753 1.822-4.626 2.545v0zM58.455 16.851l3.733-1.44c1.063-0.41 1.941-0.905 2.633-1.485 0.692-0.58 1.208-1.222 1.547-1.926 0.339-0.704 0.507-1.465 0.505-2.284-0.007-0.809-0.179-1.651-0.517-2.526v0c-0.33-0.856-0.761-1.576-1.291-2.161-0.54-0.589-1.168-1.02-1.885-1.294-0.717-0.275-1.524-0.388-2.421-0.34-0.9 0.042-1.881 0.268-2.944 0.678v0l-3.734 1.44z" fill="#b19dd0" data-fill-palette-color="primary"></path><path d="M116.319 18.104l7.713-17.078 15.282 6.903-1.373 3.039-11.815-5.337-2.016 4.464 10.029 4.531-1.287 2.849-10.029-4.53-3.038 6.724z" fill="#b19dd0" data-fill-palette-color="primary"></path><path d="M3.428 91.008c0-1.186 0.961-2.147 2.147-2.147 1.186 0 2.147 0.961 2.148 2.147 0 1.186-0.961 2.147-2.148 2.148-1.186 0-2.147-0.961-2.147-2.148z" fill="#b19dd0" data-fill-palette-color="primary"></path><path d="M172.097 91.008c0-1.186 0.961-2.147 2.148-2.147 1.186 0 2.147 0.961 2.147 2.147 0 1.186-0.961 2.147-2.147 2.148-1.186 0-2.147-0.961-2.148-2.148z" fill="#b19dd0" data-fill-palette-color="primary"></path></g><g id="text-1"><path d="M6.218 114.524l1.957 0.514c-0.077 0.422-0.133 0.841-0.169 1.257-0.042 0.418-0.05 0.838-0.023 1.262 0.02 0.426 0.074 0.866 0.161 1.321 0.086 0.448 0.211 0.915 0.377 1.402v0c0.196 0.579 0.404 1.063 0.623 1.45 0.217 0.381 0.436 0.681 0.657 0.9 0.225 0.21 0.45 0.343 0.674 0.399 0.224 0.056 0.448 0.046 0.673-0.03v0c0.349-0.118 0.575-0.36 0.678-0.725 0.11-0.367 0.062-0.857-0.146-1.469v0c-0.091-0.27-0.207-0.546-0.346-0.829-0.135-0.292-0.274-0.582-0.417-0.871-0.149-0.287-0.29-0.573-0.423-0.858-0.133-0.285-0.244-0.559-0.333-0.823v0c-0.147-0.434-0.233-0.871-0.257-1.31-0.024-0.439 0.023-0.852 0.142-1.237 0.119-0.385 0.315-0.727 0.588-1.024 0.275-0.291 0.637-0.513 1.084-0.665v0c0.263-0.089 0.539-0.142 0.827-0.159 0.288-0.017 0.577 0.014 0.867 0.091 0.29 0.078 0.581 0.21 0.872 0.398 0.295 0.179 0.577 0.424 0.844 0.737 0.272 0.304 0.531 0.678 0.777 1.124 0.244 0.438 0.468 0.96 0.674 1.565v0c0.147 0.434 0.272 0.88 0.375 1.336 0.097 0.459 0.173 0.91 0.228 1.354 0.055 0.444 0.086 0.881 0.092 1.311 0.011 0.422-0.002 0.826-0.04 1.213v0l-1.884-0.33c0.027-0.31 0.036-0.64 0.028-0.989-0.002-0.352-0.024-0.711-0.068-1.077-0.046-0.373-0.108-0.752-0.186-1.136-0.077-0.378-0.18-0.757-0.309-1.139v0c-0.185-0.546-0.376-0.98-0.574-1.302-0.197-0.322-0.394-0.567-0.59-0.736-0.188-0.164-0.372-0.263-0.552-0.297-0.178-0.028-0.343-0.016-0.494 0.035v0c-0.29 0.098-0.482 0.31-0.577 0.636-0.097 0.319-0.055 0.748 0.128 1.288v0c0.071 0.211 0.168 0.453 0.291 0.727 0.129 0.272 0.265 0.556 0.409 0.852 0.135 0.292 0.274 0.593 0.417 0.904 0.142 0.311 0.265 0.618 0.367 0.921v0c0.194 0.573 0.3 1.101 0.318 1.587 0.024 0.483-0.031 0.916-0.165 1.299-0.143 0.379-0.357 0.7-0.641 0.966-0.282 0.272-0.634 0.479-1.055 0.621v0c-0.559 0.19-1.104 0.227-1.634 0.114-0.521-0.109-1.015-0.353-1.481-0.731-0.465-0.378-0.888-0.877-1.266-1.497-0.388-0.624-0.722-1.351-1.003-2.18v0c-0.185-0.546-0.331-1.095-0.436-1.645-0.11-0.542-0.184-1.075-0.223-1.598-0.038-0.523-0.041-1.031-0.01-1.526 0.033-0.488 0.091-0.955 0.174-1.401z" fill="#b19dd0" data-fill-palette-color="primary"></path><path d="M14.941 127.155v0c0.681-0.376 1.374-0.595 2.077-0.658 0.697-0.059 1.374 0.024 2.03 0.249 0.65 0.229 1.262 0.597 1.836 1.106 0.565 0.506 1.058 1.142 1.481 1.908v0c0.423 0.767 0.699 1.527 0.829 2.28 0.124 0.757 0.109 1.471-0.044 2.143-0.159 0.675-0.45 1.292-0.872 1.85-0.428 0.562-0.983 1.03-1.664 1.406v0c-0.681 0.376-1.374 0.595-2.077 0.658-0.709 0.066-1.392-0.014-2.048-0.239-0.662-0.222-1.28-0.587-1.855-1.096-0.58-0.505-1.082-1.141-1.504-1.907v0c-0.423-0.767-0.691-1.527-0.806-2.281-0.124-0.757-0.103-1.475 0.062-2.153 0.159-0.675 0.456-1.295 0.89-1.86 0.428-0.562 0.983-1.03 1.665-1.406zM15.947 128.98v0c-0.462 0.255-0.834 0.567-1.114 0.936-0.277 0.375-0.466 0.781-0.566 1.217-0.097 0.442-0.106 0.908-0.028 1.396 0.082 0.479 0.253 0.955 0.515 1.43v0c0.265 0.481 0.578 0.883 0.94 1.207 0.371 0.327 0.768 0.564 1.19 0.712 0.426 0.154 0.87 0.21 1.332 0.17 0.465-0.034 0.929-0.179 1.391-0.434v0c0.468-0.258 0.838-0.573 1.109-0.945 0.28-0.369 0.466-0.773 0.558-1.212 0.094-0.433 0.096-0.89 0.005-1.372-0.088-0.475-0.264-0.953-0.529-1.434v0c-0.262-0.475-0.57-0.876-0.926-1.203-0.359-0.334-0.748-0.579-1.168-0.736-0.417-0.151-0.857-0.209-1.322-0.175-0.456 0.037-0.918 0.185-1.387 0.443z" fill="#b19dd0" data-fill-palette-color="primary"></path><path d="M18.743 143.538l8.069-6.346 5.676 7.216-1.433 1.128-4.388-5.578-2.114 1.662 3.725 4.735-1.344 1.056-3.724-4.734-3.178 2.5z" fill="#b19dd0" data-fill-palette-color="primary"></path><path d="M29.65 155.767l5.756-6.175-2.775-2.587 1.244-1.334 7.066 6.588-1.243 1.334-2.767-2.58-5.757 6.175z" fill="#b19dd0" data-fill-palette-color="primary"></path><path d="M40.322 164.087l1.598-11.108 1.926 1.205-1.154 7.095-0.303 1.704 1.275-1.096 2.157-1.503 0.659-4.554 1.82 1.138-0.424 2.095 1.661-1.321 1.812 1.132-3.796 2.592-0.426 2.647-0.284 1.654 1.255-1.084 5.893-4.157 1.927 1.205-9.286 6.301-1.75-1.094 0.308-2.204 0.423-2.071-1.686 1.281-1.864 1.231z" fill="#b19dd0" data-fill-palette-color="primary"></path><path d="M52.751 171.515l8.2-7.838 2.061 0.796 0.929 11.364-2.041-0.789-0.145-1.91-5.59-2.159-1.362 1.329zM57.519 169.67l4.093 1.581-0.389-5.156z" fill="#b19dd0" data-fill-palette-color="primary"></path><path d="M67.532 176.781l2.213-10.024 5.099 1.126c0.767 0.169 1.418 0.395 1.953 0.677 0.527 0.287 0.944 0.625 1.249 1.012 0.306 0.388 0.499 0.818 0.58 1.291 0.087 0.475 0.07 0.99-0.054 1.547v0c-0.081 0.366-0.203 0.709-0.366 1.029-0.162 0.313-0.369 0.591-0.621 0.834-0.245 0.238-0.534 0.437-0.869 0.598-0.326 0.156-0.696 0.266-1.108 0.331v0l1.469 3.687-2.493-0.551-1.253-3.265-0.061-0.014-3.074-0.678-0.629 2.849zM70.585 172.62l3.114 0.688c0.387 0.085 0.732 0.115 1.037 0.09 0.313-0.031 0.585-0.106 0.818-0.225 0.226-0.121 0.412-0.286 0.558-0.496 0.153-0.208 0.261-0.455 0.323-0.739v0c0.124-0.563 0.027-1.04-0.292-1.431-0.319-0.391-0.866-0.671-1.639-0.842v0l-3.114-0.688z" fill="#b19dd0" data-fill-palette-color="primary"></path><path d="M81.74 179.297l0.605-10.248 8.729 0.515-0.108 1.821-6.648-0.392-0.12 2.049 5.888 0.348-0.101 1.706-5.888-0.348-0.168 2.851 6.783 0.4-0.107 1.821z" fill="#b19dd0" data-fill-palette-color="primary"></path><path d="M101.282 178.94l-1.666-10.13 8.628-1.419 0.296 1.799-6.571 1.082 0.333 2.025 5.82-0.957 0.278 1.686-5.821 0.958 0.464 2.818 6.705-1.104 0.296 1.8z" fill="#b19dd0" data-fill-palette-color="primary"></path><path d="M114.323 176.213l-3.27-9.731 1.966-0.66 7.132 1.133-1.066-3.172 1.976-0.664 3.27 9.731-1.976 0.664-1.501-4.465-7.124-1.113 2.559 7.616z" fill="#b19dd0" data-fill-palette-color="primary"></path><path d="M125.772 166.31v0c-0.352-0.631-0.56-1.287-0.622-1.969-0.072-0.684 0.008-1.353 0.239-2.008 0.228-0.661 0.606-1.294 1.135-1.899 0.532-0.6 1.229-1.14 2.091-1.622v0c0.309-0.173 0.627-0.33 0.953-0.473 0.33-0.136 0.665-0.256 1.006-0.359 0.347-0.106 0.693-0.184 1.039-0.234 0.349-0.06 0.694-0.089 1.036-0.089v0l-0.069 1.841c-0.209-0.003-0.433 0.015-0.674 0.054-0.244 0.033-0.492 0.088-0.744 0.165-0.261 0.074-0.52 0.167-0.776 0.278-0.256 0.111-0.506 0.235-0.748 0.37v0c-0.564 0.315-1.032 0.668-1.403 1.059-0.361 0.393-0.623 0.802-0.783 1.225-0.164 0.434-0.224 0.873-0.182 1.32 0.036 0.449 0.175 0.889 0.415 1.32v0c0.247 0.443 0.559 0.802 0.936 1.077 0.377 0.275 0.796 0.463 1.257 0.562 0.458 0.094 0.951 0.093 1.479-0.002 0.518-0.098 1.05-0.3 1.596-0.605v0c0.431-0.241 0.798-0.509 1.102-0.807 0.304-0.297 0.54-0.608 0.708-0.932 0.165-0.331 0.262-0.671 0.289-1.022 0.028-0.35-0.02-0.697-0.141-1.043v0l-3.13 1.749-0.839-1.502 4.759-2.658 0.005 0.009 0.004-0.014c0.355 0.407 0.636 0.839 0.843 1.296 0.204 0.451 0.333 0.916 0.386 1.396 0.05 0.474 0.025 0.949-0.074 1.426-0.105 0.481-0.291 0.946-0.557 1.397-0.266 0.451-0.611 0.879-1.037 1.284-0.432 0.409-0.946 0.779-1.54 1.112v0c-0.837 0.468-1.651 0.763-2.442 0.886-0.797 0.127-1.544 0.107-2.242-0.06-0.692-0.17-1.319-0.473-1.88-0.908-0.567-0.431-1.032-0.971-1.395-1.62z" fill="#b19dd0" data-fill-palette-color="primary"></path><path d="M141.961 162.741l-6.042-8.299 1.693-1.233 6.043 8.299z" fill="#b19dd0" data-fill-palette-color="primary"></path><path d="M147.202 158.499l-7.006-7.504 1.516-1.415 6.96-1.922-2.283-2.445 1.524-1.423 7.005 7.504-1.523 1.422-3.215-3.443-6.946 1.937 5.484 5.873z" fill="#b19dd0" data-fill-palette-color="primary"></path><path d="M158.136 147.342l-8.162-6.227 5.304-6.951 1.45 1.106-4.039 5.294 1.632 1.246 3.578-4.69 1.359 1.037-3.578 4.69 2.27 1.732 4.122-5.403 1.45 1.107z" fill="#b19dd0" data-fill-palette-color="primary"></path><path d="M165.753 136.445l-9.004-4.929 4.199-7.67 1.599 0.876-3.198 5.841 1.801 0.986 2.833-5.174 1.499 0.821-2.833 5.174 2.505 1.371 3.263-5.96 1.6 0.876z" fill="#b19dd0" data-fill-palette-color="primary"></path><path d="M171.646 124.504l-9.663-3.465 1.763-4.915c0.265-0.739 0.571-1.356 0.919-1.852 0.352-0.487 0.739-0.857 1.162-1.111 0.423-0.254 0.875-0.391 1.354-0.411 0.482-0.026 0.991 0.056 1.528 0.249v0c0.353 0.127 0.678 0.291 0.974 0.493 0.29 0.2 0.539 0.441 0.749 0.722 0.205 0.273 0.366 0.585 0.483 0.938 0.113 0.343 0.176 0.724 0.188 1.141v0l3.843-0.991-0.862 2.404-3.397 0.829-0.021 0.059-1.063 2.963 2.747 0.985zM167.906 120.948l1.076-3.002c0.134-0.373 0.207-0.712 0.221-1.017 0.009-0.314-0.031-0.594-0.119-0.84-0.091-0.239-0.232-0.445-0.421-0.616-0.187-0.178-0.418-0.316-0.693-0.414v0c-0.543-0.195-1.028-0.158-1.457 0.109-0.428 0.267-0.776 0.774-1.043 1.519v0l-1.076 3.002z" fill="#b19dd0" data-fill-palette-color="primary"></path></g></svg></g></svg></g></svg></g><g></g></svg></g></svg></g></svg></g><defs></defs></svg><rect width="320" height="360" fill="none" stroke="none" visibility="hidden"></rect></g></svg></g></svg>